HIERARCHY
ROOT Hips
{
	OFFSET 0.00000 0.00000 0.00000
	CHANNELS 6 Xposition Yposition Zposition Zrotation Yrotation Xrotation 
	JOINT LHipJoint
	{
		OFFSET 0 0 0
		CHANNELS 3 Zrotation Yrotation Xrotation
		JOINT LeftHip
		{
			OFFSET 1.86795 -1.59681 0.65681
			CHANNELS 3 Zrotation Yrotation Xrotation
			JOINT LeftKnee
			{
				OFFSET 2.30491 -6.33268 0.00000
				CHANNELS 3 Zrotation Yrotation Xrotation
				JOINT LeftAnkle
				{
					OFFSET 2.46780 -6.78022 0.00000
					CHANNELS 3 Zrotation Yrotation Xrotation
					JOINT LeftToe
					{
						OFFSET 0.07897 -0.21698 1.59652
						CHANNELS 3 Zrotation Yrotation Xrotation
						End Site
						{
							OFFSET 0.00000 -0.00000 0.82310
						}
					}
				}
			}
		}
	}
	JOINT RHipJoint
	{
		OFFSET 0 0 0
		CHANNELS 3 Zrotation Yrotation Xrotation
		JOINT RightHip
		{
			OFFSET -1.93650 -1.59681 0.65681
			CHANNELS 3 Zrotation Yrotation Xrotation
			JOINT RightKnee
			{
				OFFSET -2.29410 -6.30299 0.00000
				CHANNELS 3 Zrotation Yrotation Xrotation
				JOINT RightAnkle
				{
					OFFSET -2.48738 -6.83403 0.00000
					CHANNELS 3 Zrotation Yrotation Xrotation
					JOINT RightToe
					{
						OFFSET -0.08699 -0.23899 1.89395
						CHANNELS 3 Zrotation Yrotation Xrotation
						End Site
						{
							OFFSET -0.00000 -0.00000 0.96904
						}
					}
				}
			}
		}
	}
	JOINT lowerback
	{
		OFFSET 0 0 0
		CHANNELS 3 Zrotation Yrotation Xrotation
		JOINT Chest
		{
			OFFSET 0.03629 1.99740 -0.07548
			CHANNELS 3 Zrotation Yrotation Xrotation
			JOINT Chest2
			{
				OFFSET 0.03970 1.94298 0.17218
				CHANNELS 3 Zrotation Yrotation Xrotation
				JOINT lowerneck
				{
					OFFSET 0 0 0
					CHANNELS 3 Zrotation Yrotation Xrotation
					JOINT Neck
					{
						OFFSET -0.05054 1.79469 0.04241
						CHANNELS 3 Zrotation Yrotation Xrotation
						JOINT Head
						{
							OFFSET 0.05195 1.78475 -0.22133
							CHANNELS 3 Zrotation Yrotation Xrotation
							End Site
							{
								OFFSET 0.02420 1.80711 -0.07950
							}
						}
					}
				}
				JOINT LeftCollar
				{
					OFFSET 0 0 0
					CHANNELS 3 Zrotation Yrotation Xrotation
					JOINT LeftShoulder
					{
						OFFSET 2.92134 1.19850 0.36056
CHANNELS 3 Zrotation Xrotation Yrotation
						JOINT LeftElbow
						{
OFFSET 0 -4.841370 0.000000
CHANNELS 3 Zrotation Xrotation Yrotation
							JOINT LeftWrist
							{
OFFSET 0 -3.245200 -0.000000
CHANNELS 3 Zrotation Xrotation Yrotation
								JOINT lhand
								{
									OFFSET 0 0 0
CHANNELS 3 Zrotation Xrotation Yrotation
									JOINT LFingers
									{
OFFSET 0 -0.521220 0.000000
CHANNELS 3 Zrotation Xrotation Yrotation
										End Site
										{
OFFSET 0 -0.420220 0.000000
										}
									}
								}
								JOINT LThumb
								{
OFFSET 0 0.000000 0.000000
CHANNELS 3 Zrotation Xrotation Yrotation
									End Site
									{
OFFSET 0 -0.426640 0.426640
									}
								}
							}
						}
					}
				}
				JOINT RightCollar
				{
					OFFSET 0 0 0
					CHANNELS 3 Zrotation Yrotation Xrotation
					JOINT RightShoulder
					{
						OFFSET -2.84327 1.20795 0.50191
CHANNELS 3 Zrotation Xrotation Yrotation
						JOINT RightElbow
						{
OFFSET 0 -4.722840 0.000000
CHANNELS 3 Zrotation Xrotation Yrotation
							JOINT RightWrist
							{
OFFSET 0 -3.234590 0.000000
CHANNELS 3 Zrotation Xrotation Yrotation
								JOINT rhand
								{
									OFFSET 0 0 0
CHANNELS 3 Zrotation Xrotation Yrotation
									JOINT RFingers
									{
OFFSET 0 -0.307420 0.000000
CHANNELS 3 Zrotation Xrotation Yrotation
										End Site
										{
OFFSET 0 -0.247850 0.000000
										}
									}
								}
								JOINT RThumb
								{
OFFSET 0 0.000000 0.000000
CHANNELS 3 Zrotation Xrotation Yrotation
									End Site
									{
OFFSET 0 -0.251630 0.251630
									}
								}
							}
						}
					}
				}
			}
		}
	}
}
MOTION
Frames: 7
Frame Time: 0.008333333333333333
18.776900 14.805000 -11.796800 1.458400 -7.124800 4.845400 0.000000 0.000000 0.000000 -18.453100 -26.601600 -25.346800 10.177300 17.508400 60.079400 1.961300 10.373800 -31.879200 1.830900 -8.504600 -24.257500 0.000000 0.000000 0.000000 -4.407600 14.744300 -64.205700 -18.277600 -19.928700 84.958200 -7.173700 -1.215900 51.012400 -0.864200 -5.927700 16.574800 -3.149200 -2.269300 17.183800 -1.706800 -4.052900 -5.008300 1.058500 -1.658200 -15.328100 -4.141900 2.298500 -4.116000 11.592600 1.106300 23.326200 4.653400 1.165000 7.678600 -0.000000 -0.000000 0.000000 65.908400 6.231800 25.102300 35.122500 -44.899400 14.899800 -67.699500 -4.415600 -41.386700 0.000000 0.000000 0.000000 -7.125000 0.000000 0.000000 -96.400900 49.615700 41.077500 -0.000000 -0.000000 0.000000 -95.684100 7.162700 -20.042500 -19.202500 -29.669500 -5.130700 62.791100 -7.685100 7.596500 0.000000 0.000000 0.000000 7.125000 0.000000 -0.000000 43.307000 5.560200 63.890500
18.861102 14.804666 -11.763604 0.947556 -7.422827 5.110728 0.000000 0.000000 0.000000 -18.169762 -26.293234 -25.679683 10.248649 17.547303 60.316155 1.932773 10.568696 -31.842630 1.925896 -8.708865 -24.889466 0.000000 0.000000 0.000000 -4.162490 14.367495 -64.504238 -18.180289 -19.920383 84.672739 -7.264959 -0.684520 51.465198 -0.962033 -6.245125 17.497311 -2.353290 -2.384461 16.740708 -1.441147 -3.976340 -5.201547 0.871974 -1.683471 -15.319187 -4.256058 2.302990 -4.041116 11.202413 1.181681 23.627111 4.556135 1.157887 7.762210 0.000000 0.000000 0.000000 66.044935 6.335136 25.477212 35.578566 -45.220829 15.222598 -68.178757 -4.361295 -40.319814 0.000000 0.000000 0.000000 -7.125000 0.000000 0.000000 -94.860621 49.424044 38.061058 0.000000 0.000000 0.000000 -96.043928 7.013990 -20.005896 -19.421716 -29.939284 -5.239680 63.385212 -6.314813 6.545960 0.000000 0.000000 0.000000 7.125000 0.000000 0.000000 43.106933 2.006025 67.315477
18.945655 14.800346 -11.725944 1.295962 -7.912480 5.306987 0.000000 0.000000 0.000000 -18.910315 -26.012476 -25.883024 10.258819 17.552859 60.349879 1.962186 10.633155 -32.064404 1.862173 -8.570759 -24.462962 0.000000 0.000000 0.000000 -4.835140 13.755730 -65.069966 -18.169124 -19.919456 84.639959 -7.385812 -0.337372 51.984341 -0.965904 -6.257138 17.532412 -2.399225 -2.401481 16.227114 -1.430464 -3.996778 -5.374279 0.894722 -1.692367 -15.203608 -4.498447 2.363610 -4.293335 11.124858 1.278444 24.118181 4.603868 1.186901 7.961502 0.000000 0.000000 0.000000 66.294190 6.562342 25.583229 35.983332 -45.501316 15.510690 -69.615890 -6.254859 -40.278413 0.000000 0.000000 0.000000 -7.125000 0.000000 0.000000 -95.714711 49.189153 38.655040 0.000000 0.000000 0.000000 -96.318852 6.750397 -19.996689 -19.635940 -30.201044 -5.347055 63.630696 -6.575395 6.507100 0.000000 0.000000 0.000000 7.125000 0.000000 0.000000 43.087023 1.386444 67.906838
19.022683 14.803005 -11.690760 1.235752 -8.432451 5.592853 0.000000 0.000000 0.000000 -19.109344 -25.701619 -26.174548 10.262131 17.554614 60.360881 2.030165 10.269136 -32.220030 1.604538 -7.987301 -22.676254 0.000000 0.000000 0.000000 -5.094008 13.453016 -65.518823 -18.159615 -19.918602 84.611911 -7.611698 -3.757532 52.173438 -1.599896 -7.916993 22.495520 -2.171813 -2.413312 15.833724 -1.327062 -3.942533 -5.576149 0.853619 -1.683917 -15.209581 -4.436657 2.390793 -4.482192 10.960738 1.331205 24.311383 4.552560 1.208365 8.060338 0.000000 0.000000 0.000000 66.682027 7.066599 25.396428 36.473560 -45.835972 15.861285 -70.959564 -7.380682 -39.005858 0.000000 0.000000 0.000000 -7.125000 0.000000 0.000000 -94.161314 48.872964 35.170949 0.000000 0.000000 0.000000 -96.559185 6.518310 -20.104245 -19.910658 -30.534564 -5.485897 65.442659 -10.024478 7.733836 0.000000 0.000000 0.000000 7.125000 0.000000 0.000000 43.068392 0.165926 69.030271
19.104592 14.808178 -11.645221 1.520654 -8.767554 5.794316 0.000000 0.000000 0.000000 -19.808092 -25.673781 -26.218186 10.240209 17.542721 60.288198 2.055565 10.215110 -32.334413 1.405711 -7.498569 -21.201540 0.000000 0.000000 0.000000 -5.460684 12.564601 -65.959537 -18.159275 -19.918617 84.611062 -7.579873 -3.021069 52.174907 -1.425446 -7.513792 21.262673 -2.092012 -2.461187 15.416309 -1.364264 -3.990761 -5.791575 0.765129 -1.717961 -15.216254 -4.081005 2.335627 -4.392983 10.365024 1.336878 24.281325 4.284001 1.184998 8.048976 0.000000 0.000000 0.000000 67.198415 7.358910 25.204954 36.890520 -46.115760 16.161119 -71.621293 -7.543862 -37.435709 0.000000 0.000000 0.000000 -7.125000 0.000000 0.000000 -91.321369 48.604077 29.989338 0.000000 0.000000 0.000000 -96.937190 6.579307 -19.962784 -20.070803 -30.727479 -5.567504 65.426404 -9.375313 7.166874 0.000000 0.000000 0.000000 7.125000 0.000000 0.000000 43.080178 -1.147537 70.244709
19.181103 14.805378 -11.607696 1.848988 -9.179787 6.004781 0.000000 0.000000 0.000000 -20.493472 -25.668409 -26.288343 10.210311 17.526437 60.188893 2.113868 9.883684 -32.458085 1.109422 -6.689631 -18.799978 0.000000 0.000000 0.000000 -5.673519 11.635488 -66.636321 -18.132281 -19.916204 84.531870 -7.247391 1.592210 51.931029 -0.662218 -5.202304 14.487036 -2.024817 -2.439670 15.071291 -1.425997 -3.952462 -5.964435 0.634423 -1.712805 -15.219196 -4.070522 2.368304 -4.542942 10.260733 1.408380 24.264578 4.254247 1.213803 8.067068 0.000000 0.000000 0.000000 67.694632 7.414208 25.245633 37.259752 -46.359891 16.427740 -72.811849 -8.909064 -36.668751 0.000000 0.000000 0.000000 -7.125000 0.000000 0.000000 -90.320979 48.369434 27.709974 0.000000 0.000000 0.000000 -97.162488 6.820199 -19.969607 -20.423274 -31.148886 -5.748727 66.313565 -10.231574 7.330245 0.000000 0.000000 0.000000 7.125000 0.000000 0.000000 43.105748 -2.678475 71.579803
19.260565 14.794446 -11.578413 1.850079 -9.603698 6.407641 0.000000 0.000000 0.000000 -20.690214 -25.523929 -26.797731 10.228073 17.536130 60.248095 2.096306 10.112604 -32.506747 1.152994 -6.814778 -19.168795 0.000000 0.000000 0.000000 -5.680627 10.890429 -67.582638 -18.161988 -19.918828 84.618952 -7.130114 4.318202 52.244825 -0.362026 -3.827621 10.596781 -1.571797 -2.466062 14.835195 -1.389312 -3.891702 -6.243155 0.399799 -1.724779 -15.436447 -4.412235 2.361769 -4.427994 10.409981 1.420625 24.072835 4.355220 1.198189 7.972150 0.000000 0.000000 0.000000 68.049178 7.504621 25.776662 37.591632 -46.576366 16.668395 -73.215757 -9.079946 -35.975854 0.000000 0.000000 0.000000 -7.125000 0.000000 0.000000 -88.910451 48.202671 25.195127 0.000000 0.000000 0.000000 -97.493247 6.842706 -20.084532 -20.690640 -31.465384 -5.887621 67.440663 -10.589113 7.195081 0.000000 0.000000 0.000000 7.125000 0.000000 0.000000 43.261735 -5.405784 73.909832
